PathFileType	4	(X/Y/Z)	/Users/itak/Documents/Research/Walk-IL/dataset/trc/00279_00010.trc
DataRate	CameraRate	NumFrames	NumMarkers	Units	OrigDataRate	OrigDataStartFrame	OrigNumFrames
100.000000	100.000000	4	53	mm	100.000000	376	752
Frame#	Time	RPSI			LPSI			L3			STRN			T10			C7			CLAV			RBAK			LBAK			LSHO			LUPA			LAEL			LAOL			LWTS			LWPS			LFRA			LIFD			LHPS			LHTS			RSHO			RUPA			RAEL			RAOL			RWTS			RWPS			RFRA			RIFD			RHTS			RHPS			RBHD			LFHD			RFHD			LBHD			LHIP			RHIP			RASI			LASI			LKNE			LTHI			LANK			LTIP			LTOE			LMT1			LMT5			LHEE			RKNE			RTHI			RANK			RTIP			RTOE			RMT1			RMT5			RHEE			
		X1	Y1	Z1	X2	Y2	Z2	X3	Y3	Z3	X4	Y4	Z4	X5	Y5	Z5	X6	Y6	Z6	X7	Y7	Z7	X8	Y8	Z8	X9	Y9	Z9	X10	Y10	Z10	X11	Y11	Z11	X12	Y12	Z12	X13	Y13	Z13	X14	Y14	Z14	X15	Y15	Z15	X16	Y16	Z16	X17	Y17	Z17	X18	Y18	Z18	X19	Y19	Z19	X20	Y20	Z20	X21	Y21	Z21	X22	Y22	Z22	X23	Y23	Z23	X24	Y24	Z24	X25	Y25	Z25	X26	Y26	Z26	X27	Y27	Z27	X28	Y28	Z28	X29	Y29	Z29	X30	Y30	Z30	X31	Y31	Z31	X32	Y32	Z32	X33	Y33	Z33	X34	Y34	Z34	X35	Y35	Z35	X36	Y36	Z36	X37	Y37	Z37	X38	Y38	Z38	X39	Y39	Z39	X40	Y40	Z40	X41	Y41	Z41	X42	Y42	Z42	X43	Y43	Z43	X44	Y44	Z44	X45	Y45	Z45	X46	Y46	Z46	X47	Y47	Z47	X48	Y48	Z48	X49	Y49	Z49	X50	Y50	Z50	X51	Y51	Z51	X52	Y52	Z52	X53	Y53	Z53	

377	3.76	857.3941040039062	990.26513671875	-404.2206115722656	775.802001953125	961.2962036132812	-252.3031768798828	800.94287109375	1056.336791992188	-341.1178894042969	551.4684448242188	1214.842163085938	-440.9566040039062	807.056884765625	1180.247192382812	-343.5675354003906	734.609375	1417.395141601562	-355.7855224609375	599.6290893554688	1320.3876953125	-417.2702941894531	824.7568969726562	1287.056518554688	-405.4360961914062	715.3350830078125	1384.595092773438	-252.3343048095703	611.6358642578125	1381.980712890625	-236.8338317871094	635.8594970703125	1277.1708984375	-146.9922332763672	671.3335571289062	1079.774780273438	-116.9129791259766	746.8466796875	1075.209838867188	-158.4632873535156	602.2955932617188	864.766357421875	-190.7135314941406	617.8759765625	848.1553344726562	-122.1024551391602	655.7644653320312	977.5980834960938	-113.1514129638672	583.4352416992188	679.2801513671875	-198.6403503417969	608.9838256835938	760.288330078125	-132.7925872802734	566.8361206054688	768.5089721679688	-183.3141021728516	731.3141479492188	1392.514526367188	-526.5529174804688	769.1944580078125	1342.178344726562	-586.9110107421875	830.2719116210938	1086.321655273438	-649.0385131835938	820.4179077148438	1066.312255859375	-556.0968017578125	706.56982421875	878.0274047851562	-693.5299682617188	783.4466552734375	872.6982421875	-732.3739624023438	818.4041748046875	1023.896789550781	-681.256103515625	682.7476806640625	699.5321655273438	-728.2705078125	680.5399780273438	772.94482421875	-748.0116577148438	750.3516235351562	768.3236694335938	-763.6500244140625	719.383056640625	1562.048583984375	-463.3100891113281	531.9785766601562	1597.587646484375	-369.4691467285156	545.9791870117188	1593.977783203125	-461.7780456542969	696.8250122070312	1557.541870117188	-318.0024108886719	667.1265258789062	911.6521606445312	-205.7979278564453	818.8958129882812	950.8762817382812	-546.3877563476562	681.544677734375	947.2368774414062	-541.0667114257812	574.039794921875	932.109619140625	-313.0204772949219	458.823486328125	507.0654296875	-384.6876831054688	512.0616455078125	627.7973022460938	-319.0494995117188	591.166259765625	70.86931610107422	-394.46923828125	516.3265380859375	277.9761657714844	-383.9716796875	456.4578857421875	51.00962448120117	-552.1906127929688	534.9852905273438	43.53250503540039	-548.4483032226562	484.4061889648438	51.63766479492188	-449.2806396484375	660.817138671875	73.70357513427734	-418.936279296875	797.244873046875	475.9366149902344	-552.3048095703125	773.945068359375	740.3057861328125	-582.0656127929688	897.6989135742188	33.57867813110352	-499.7367858886719	797.1937255859375	348.9637756347656	-545.5943603515625	699.3026733398438	36.69252395629883	-526.1997680664062	738.4127197265625	35.10655212402344	-469.1037902832031	812.6979370117188	28.44468116760254	-559.2275390625	931.3368530273438	34.15139770507812	-435.5767822265625	
378	3.77	849.6484985351562	989.4407958984375	-408.6204223632812	768.7474975585938	960.3350219726562	-256.4641723632812	793.6992797851562	1055.179931640625	-345.4679870605469	543.96826171875	1213.750122070312	-443.1211853027344	800.2687377929688	1178.926147460938	-347.95751953125	727.8073120117188	1416.155883789062	-359.1277770996094	592.3472900390625	1319.161010742188	-419.5213012695312	817.495849609375	1285.854125976562	-409.8359375	709.5576171875	1383.10693359375	-255.5463256835938	606.0620727539062	1380.435424804688	-239.0689697265625	631.1650390625	1275.482421875	-149.7158203125	666.9462280273438	1077.915649414062	-120.5768280029297	742.1517333984375	1073.673095703125	-162.7544403076172	598.2512817382812	862.8875122070312	-195.1083526611328	613.7389526367188	846.2091674804688	-126.5464553833008	651.5137329101562	975.717529296875	-117.2294998168945	580.2725830078125	677.4114990234375	-203.2100524902344	605.1430053710938	758.3187866210938	-137.38818359375	563.2508544921875	766.43798828125	-188.0175170898438	722.9415283203125	1391.596801757812	-529.8856811523438	760.14453125	1341.331665039062	-590.728515625	819.5093383789062	1085.512329101562	-654.7815551757812	810.2756958007812	1064.900756835938	-561.8801879882812	694.3642578125	878.2942504882812	-699.970703125	771.0545043945312	872.65234375	-739.078125	807.1464233398438	1023.340148925781	-687.3037719726562	669.1624755859375	700.2330322265625	-735.9025268554688	667.458984375	773.8157348632812	-755.1992797851562	737.1336669921875	768.7556762695312	-770.9791870117188	710.54736328125	1561.2294921875	-466.4781799316406	524.2047119140625	1595.762451171875	-370.3081970214844	537.0408935546875	1592.274658203125	-462.8448486328125	689.7462158203125	1556.560302734375	-320.9660949707031	660.1914672851562	910.526611328125	-209.7576293945312	810.6583251953125	949.9231567382812	-550.6133422851562	674.3861694335938	946.082275390625	-544.6534423828125	566.7324829101562	931.0064697265625	-316.3004455566406	452.5957946777344	505.310546875	-385.85986328125	505.7814636230469	626.0232543945312	-320.1734924316406	558.5059814453125	62.90297698974609	-408.0416259765625	497.6007690429688	273.8751525878906	-390.7360229492188	420.3305969238281	56.03064727783203	-563.7801513671875	498.0553588867188	43.52578735351562	-561.6461791992188	449.8291320800781	51.98508071899414	-461.4176940917969	627.835205078125	62.11648178100586	-433.6274719238281	793.6105346679688	475.0055541992188	-554.0846557617188	767.1342163085938	739.0005493164062	-585.1194458007812	897.7457885742188	34.28104019165039	-499.8096313476562	794.6466674804688	348.0543518066406	-546.5609130859375	699.1931762695312	36.64352798461914	-526.1905517578125	738.2070922851562	34.75786972045898	-468.9451599121094	812.6070556640625	28.58838653564453	-559.1307373046875	931.286376953125	34.35715103149414	-435.3556213378906	
379	3.78	841.6718139648438	988.494140625	-412.9598999023438	761.4405517578125	959.20263671875	-260.5839233398438	786.2150268554688	1053.840576171875	-349.7262268066406	536.3731079101562	1212.581298828125	-445.2975463867188	793.2786865234375	1177.411376953125	-352.1796569824219	720.9097290039062	1414.750122070312	-362.2906494140625	584.995849609375	1317.833374023438	-421.7271118164062	810.125732421875	1284.469848632812	-414.0230712890625	703.5856323242188	1381.435180664062	-258.6105041503906	600.28369140625	1378.714477539062	-241.2702941894531	626.1192016601562	1273.616455078125	-152.3929443359375	662.1468505859375	1075.860961914062	-124.2177963256836	737.09033203125	1071.971435546875	-166.9635620117188	594.1465454101562	860.6561279296875	-199.4197235107422	609.5799560546875	843.9671020507812	-130.8713836669922	647.0167846679688	973.6010131835938	-121.2348403930664	577.353515625	675.1484985351562	-207.6331634521484	601.4249267578125	756.0381469726562	-141.8371276855469	559.7693481445312	763.965576171875	-192.5974884033203	714.5999145507812	1390.555786132812	-533.0405883789062	751.1500244140625	1340.362915039062	-594.3472900390625	808.7293090820312	1084.566040039062	-660.2440795898438	800.0537719726562	1063.382690429688	-567.3831176757812	682.1502075195312	878.3881225585938	-706.0763549804688	758.6715698242188	872.4458618164062	-745.42529296875	795.8729858398438	1022.631225585938	-693.045166015625	655.5617065429688	700.7705688476562	-743.0831298828125	654.4188842773438	774.5015258789062	-762.0068969726562	723.970458984375	769.0216064453125	-777.9176025390625	701.7222900390625	1560.290649414062	-469.4483032226562	516.4002685546875	1593.812866210938	-371.010009765625	528.128173828125	1590.455200195312	-463.7596130371094	682.6105346679688	1555.412475585938	-323.7244262695312	653.1217041015625	909.1630859375	-213.6863403320312	802.2246704101562	948.8911743164062	-554.8030395507812	667.1707153320312	944.8017578125	-548.1786499023438	559.17431640625	929.72021484375	-319.5809936523438	446.6240539550781	503.0740661621094	-386.87353515625	499.6290893554688	623.8120727539062	-321.1526794433594	525.5331420898438	56.32771301269531	-420.6571655273438	478.9136657714844	270.2504577636719	-396.9754943847656	384.6184692382812	62.30401992797852	-573.937255859375	461.2374877929688	44.96645736694336	-573.551025390625	415.422607421875	53.57392883300781	-472.2902221679688	594.2169189453125	52.02003860473633	-447.52880859375	789.8866577148438	474.04931640625	-555.8035278320312	760.1331176757812	737.6134033203125	-588.1519165039062	897.8013916015625	34.95614624023438	-499.8907165527344	792.0731811523438	347.1410217285156	-547.4921264648438	699.0824584960938	36.60448837280273	-526.196044921875	738.014404296875	34.42763137817383	-468.8103637695312	812.5257568359375	28.70938301086426	-559.0433349609375	931.2388916015625	34.5741081237793	-435.1383361816406	
380	3.79	833.4676513671875	987.42138671875	-417.2364501953125	753.8777465820312	957.8856811523438	-264.6588134765625	778.4933471679688	1052.311401367188	-353.8895263671875	528.6694946289062	1211.34423828125	-447.4765319824219	786.0802612304688	1175.694091796875	-356.2363586425781	713.9130859375	1413.170043945312	-365.2736206054688	577.5662841796875	1316.414794921875	-423.8818969726562	802.6400756835938	1282.89453125	-418.0030517578125	697.42236328125	1379.572387695312	-261.52392578125	594.2962036132812	1376.822387695312	-243.4216613769531	620.7346801757812	1271.568969726562	-155.0072021484375	656.953857421875	1073.607788085938	-127.8221817016602	731.6696166992188	1070.099487304688	-171.0863189697266	589.9663696289062	858.0826416015625	-203.6326141357422	605.4002685546875	841.429931640625	-135.0710906982422	642.2821044921875	971.2468872070312	-125.1590194702148	574.6571655273438	672.50830078125	-211.9055938720703	597.8272094726562	753.45068359375	-146.1392974853516	556.3751831054688	761.1056518554688	-197.0375518798828	706.2828369140625	1389.387451171875	-536.0177612304688	742.2037353515625	1339.268310546875	-597.7670288085938	797.9383544921875	1083.485229492188	-665.4286499023438	789.7620239257812	1061.759521484375	-572.6058959960938	669.9240112304688	878.309814453125	-711.8325805664062	746.2904663085938	872.0820922851562	-751.4188232421875	784.5861206054688	1021.773193359375	-698.4830322265625	641.9051513671875	701.1490478515625	-749.785888671875	641.4030151367188	774.9978637695312	-768.4069213867188	710.8464965820312	769.120361328125	-784.45849609375	692.9031372070312	1559.222778320312	-472.2246398925781	508.5609130859375	1591.738525390625	-371.5841064453125	519.2357788085938	1588.517700195312	-464.5306091308594	675.415771484375	1554.095581054688	-326.2842102050781	645.9241943359375	907.5516357421875	-217.5683441162109	793.5928344726562	947.7713623046875	-558.9541625976562	659.8128662109375	943.394287109375	-551.6619262695312	551.3668823242188	928.2435913085938	-322.8634338378906	440.7958374023438	500.4374694824219	-387.7879638671875	493.5632934570312	621.1978759765625	-322.0461120605469	492.61865234375	51.19735717773438	-432.2268371582031	460.3890991210938	267.155517578125	-402.6710815429688	349.4833068847656	69.72062683105469	-582.4617919921875	424.7447814941406	47.80852890014648	-584.0147705078125	381.4853210449219	56.35902404785156	-481.72265625	560.3167724609375	43.51152038574219	-460.5863037109375	786.082763671875	473.0702514648438	-557.4596557617188	752.9564819335938	736.1358642578125	-591.159912109375	897.8643188476562	35.60226440429688	-499.9753723144531	789.475830078125	346.2256469726562	-548.3900756835938	698.9708862304688	36.57143402099609	-526.2138061523438	737.83935546875	34.12663269042969	-468.7057495117188	812.4530029296875	28.80924415588379	-558.96142578125	931.1887817382812	34.80099105834961	-434.9230651855469	
